<svg xmlns="http://www.w3.org/2000/svg" width="31" height="31" viewBox="0 0 31 31"><defs><style>.a{fill:#bf2481;}.b{fill:#fff;}</style></defs><circle class="a" cx="15.5" cy="15.5" r="15.5"/><g transform="translate(8.09 8.096)"><path class="b" d="M7.337,35.435a3.8,3.8,0,1,0,3.8,3.8A3.793,3.793,0,0,0,7.337,35.435Zm0,6.269a2.47,2.47,0,1,1,2.47-2.47A2.474,2.474,0,0,1,7.337,41.7Zm4.84-6.424a.886.886,0,1,1-.886-.886A.884.884,0,0,1,12.177,35.279Zm2.516.9a4.385,4.385,0,0,0-1.2-3.1,4.414,4.414,0,0,0-3.1-1.2c-1.223-.069-4.89-.069-6.113,0a4.408,4.408,0,0,0-3.1,1.194,4.4,4.4,0,0,0-1.2,3.1c-.069,1.223-.069,4.89,0,6.113a4.385,4.385,0,0,0,1.2,3.1,4.419,4.419,0,0,0,3.1,1.2c1.223.069,4.89.069,6.113,0a4.385,4.385,0,0,0,3.1-1.2,4.414,4.414,0,0,0,1.2-3.1C14.763,41.065,14.763,37.4,14.693,36.178ZM13.113,43.6A2.5,2.5,0,0,1,11.7,45.009a16.33,16.33,0,0,1-4.368.3,16.457,16.457,0,0,1-4.368-.3A2.5,2.5,0,0,1,1.561,43.6a16.329,16.329,0,0,1-.3-4.368,16.457,16.457,0,0,1,.3-4.368,2.5,2.5,0,0,1,1.408-1.408,16.329,16.329,0,0,1,4.368-.3,16.457,16.457,0,0,1,4.368.3,2.5,2.5,0,0,1,1.408,1.408,16.329,16.329,0,0,1,.3,4.368A16.32,16.32,0,0,1,13.113,43.6Z" transform="translate(0.075 -31.825)"/></g></svg>