<svg xmlns="http://www.w3.org/2000/svg" width="18.82" height="18.817" viewBox="0 0 18.82 18.817"><defs><style>.a{fill:#fff;}</style></defs><path class="a" d="M9.337,36.409a4.824,4.824,0,1,0,4.824,4.824A4.817,4.817,0,0,0,9.337,36.409Zm0,7.961a3.137,3.137,0,1,1,3.136-3.136A3.142,3.142,0,0,1,9.337,44.37Zm6.147-8.158a1.125,1.125,0,1,1-1.125-1.125A1.123,1.123,0,0,1,15.484,36.212Zm3.2,1.142a5.569,5.569,0,0,0-1.52-3.943,5.6,5.6,0,0,0-3.943-1.52c-1.553-.088-6.21-.088-7.763,0a5.6,5.6,0,0,0-3.943,1.516A5.587,5.587,0,0,0-.009,37.35C-.1,38.9-.1,43.56-.009,45.113a5.569,5.569,0,0,0,1.52,3.943,5.612,5.612,0,0,0,3.943,1.52c1.553.088,6.21.088,7.763,0a5.568,5.568,0,0,0,3.943-1.52,5.605,5.605,0,0,0,1.52-3.943C18.767,43.56,18.767,38.907,18.679,37.354ZM16.672,46.78a3.175,3.175,0,0,1-1.789,1.789c-1.239.491-4.178.378-5.546.378s-4.312.109-5.546-.378A3.175,3.175,0,0,1,2,46.78c-.491-1.239-.378-4.178-.378-5.547S1.515,36.921,2,35.687A3.175,3.175,0,0,1,3.791,33.9c1.239-.491,4.178-.378,5.546-.378s4.312-.109,5.546.378a3.175,3.175,0,0,1,1.789,1.789c.491,1.239.378,4.178.378,5.547S17.164,45.546,16.672,46.78Z" transform="translate(0.075 -31.825)"/></svg>