<svg xmlns="http://www.w3.org/2000/svg" xmlns:xlink="http://www.w3.org/1999/xlink" width="32" height="32" viewBox="0 0 32 32"><defs><style>.a{fill:none;}.b{fill:#fff;}.c{clip-path:url(#a);}.d{fill:#bf2431;}</style><clipPath id="a"><rect class="a" width="32" height="32"/></clipPath></defs><circle class="b" cx="14.5" cy="14.5" r="14.5" transform="translate(1 1)"/><g class="c"><path class="d" d="M13.569,18.5l5.123-2.951L13.569,12.6Zm0,0" transform="translate(0.219 0.203)"/><path class="d" d="M15.75,0A15.75,15.75,0,1,0,31.5,15.75,15.752,15.752,0,0,0,15.75,0Zm8.623,15.75a20.045,20.045,0,0,1-.405,4.017A2.466,2.466,0,0,1,22.233,21.5a53.307,53.307,0,0,1-7.17.422,35.5,35.5,0,0,1-5.83-.422A2.466,2.466,0,0,1,7.5,19.766a19.816,19.816,0,0,1-.405-4A21.333,21.333,0,0,1,7.5,11.583,2.516,2.516,0,0,1,9.233,9.832c1.54-.405,7.7-.405,7.7-.405a29.629,29.629,0,0,1,5.3.405,2.466,2.466,0,0,1,1.735,1.735,20.068,20.068,0,0,1,.405,4.183Zm0,.016"/></g></svg>