<svg xmlns="http://www.w3.org/2000/svg" xmlns:xlink="http://www.w3.org/1999/xlink" width="135.425" height="37" viewBox="0 0 135.425 37"><defs><style>.a,.b{fill:#fff;}.a{stroke:#707070;}.c{clip-path:url(#a);}</style><clipPath id="a"><rect class="a" width="37" height="37" transform="translate(772.355 4702.7)"/></clipPath></defs><g transform="translate(-715 -4605)"><g transform="translate(780 4609.028)"><path class="b" d="M37.108,15.98l.789-5.141H32.964V7.5a2.571,2.571,0,0,1,2.9-2.778h2.243V.347A27.348,27.348,0,0,0,34.124,0c-4.063,0-6.718,2.463-6.718,6.92v3.919H22.89V15.98h4.516V28.41h5.558V15.98Z" transform="translate(-22.89)"/></g><g transform="translate(822 4607.923)"><path class="b" d="M14.141,38.748a7.287,7.287,0,1,0,7.286,7.287A7.275,7.275,0,0,0,14.141,38.748Zm0,12.024a4.737,4.737,0,1,1,4.737-4.737A4.746,4.746,0,0,1,14.141,50.772ZM23.424,38.45a1.7,1.7,0,1,1-1.7-1.7A1.7,1.7,0,0,1,23.424,38.45Zm4.826,1.725a8.411,8.411,0,0,0-2.3-5.955A8.465,8.465,0,0,0,20,31.925c-2.346-.133-9.379-.133-11.725,0A8.453,8.453,0,0,0,2.32,34.214a8.438,8.438,0,0,0-2.3,5.955c-.133,2.346-.133,9.379,0,11.726a8.411,8.411,0,0,0,2.3,5.955,8.476,8.476,0,0,0,5.955,2.3c2.346.133,9.379.133,11.725,0a8.41,8.41,0,0,0,5.955-2.3,8.466,8.466,0,0,0,2.3-5.955C28.383,49.548,28.383,42.522,28.25,40.175ZM25.219,54.412a4.8,4.8,0,0,1-2.7,2.7c-1.871.742-6.31.571-8.377.571s-6.513.165-8.377-.571a4.8,4.8,0,0,1-2.7-2.7c-.742-1.871-.571-6.31-.571-8.377s-.165-6.513.571-8.377a4.8,4.8,0,0,1,2.7-2.7c1.871-.742,6.31-.571,8.377-.571s6.513-.165,8.377.571a4.8,4.8,0,0,1,2.7,2.7c.742,1.871.571,6.31.571,8.377S25.961,52.548,25.219,54.412Z" transform="translate(0.075 -31.825)"/></g><g class="c" transform="translate(-57.355 -97.7)"><path class="b" d="M35.944,3.688A4.6,4.6,0,0,0,32.71.453C29.838-.333,18.35-.333,18.35-.333S6.862-.333,3.99.423A4.691,4.691,0,0,0,.756,3.688C0,6.56,0,12.515,0,12.515S0,18.5.756,21.343a4.6,4.6,0,0,0,3.235,3.235c2.9.786,14.36.786,14.36.786s11.487,0,14.359-.756a4.6,4.6,0,0,0,3.235-3.235c.756-2.872.756-8.827.756-8.827s.03-5.986-.756-8.857ZM14.692,18.017v-11l9.553,5.5Zm0,0" transform="translate(772.655 4708.834)"/></g></g></svg>